<?xml version="1.0" standalone="no"?>
<!DOCTYPE svg PUBLIC "-//W3C//DTD SVG 20010904//EN"
 "http://www.w3.org/TR/2001/REC-SVG-20010904/DTD/svg10.dtd">
<svg version="1.0" xmlns="http://www.w3.org/2000/svg"
 width="740.000000pt" height="564.000000pt" viewBox="0 0 740.000000 564.000000"
 preserveAspectRatio="xMidYMid meet">

<g transform="translate(0.000000,564.000000) scale(0.100000,-0.100000)"
fill="#000000" stroke="none">
<path d="M3660 3750 l-105 -49 -3 -51 -3 -50 -55 0 -54 0 0 -75 0 -75 55 0 55
0 0 -187 c0 -159 3 -193 18 -222 36 -72 92 -90 255 -83 l88 4 -3 77 -3 76 -40
6 c-85 11 -85 11 -85 179 l0 149 63 3 62 3 3 73 3 72 -66 0 -65 0 0 100 c0 55
-3 100 -7 100 -5 -1 -55 -23 -113 -50z"/>
<path d="M1872 3602 c-33 -12 -71 -36 -98 -63 l-44 -43 0 41 0 42 -106 3 c-58
2 -108 1 -110 -1 -2 -2 -4 -195 -4 -428 l0 -424 108 3 107 3 3 156 2 157 33
-31 c47 -44 104 -67 167 -67 74 0 118 14 163 51 86 70 121 170 115 320 -3 87
-7 104 -38 165 -47 91 -93 125 -181 130 -46 3 -79 -1 -117 -14z m59 -157 c37
-37 53 -100 46 -189 -8 -113 -45 -166 -115 -166 -86 0 -131 65 -132 188 0 99
31 170 85 193 32 14 86 2 116 -26z"/>
<path d="M2457 3600 c-56 -18 -114 -54 -150 -95 -35 -39 -68 -123 -74 -189
-16 -179 72 -315 235 -362 87 -26 240 -16 318 20 117 53 181 147 191 282 14
183 -70 304 -242 350 -72 20 -208 17 -278 -6z m190 -127 c54 -25 78 -85 77
-198 0 -73 -4 -98 -23 -133 -47 -91 -150 -92 -201 -2 -22 39 -25 57 -25 140 1
113 24 172 78 195 42 18 52 18 94 -2z"/>
<path d="M1065 3604 c-84 -21 -156 -67 -181 -115 -20 -39 -20 -118 -1 -155 32
-62 101 -102 212 -124 70 -14 141 -52 150 -80 13 -41 -28 -80 -85 -80 -40 0
-90 47 -90 84 l0 26 -116 0 -117 0 6 -37 c11 -64 56 -125 117 -155 154 -77
407 -47 487 59 22 29 28 49 31 102 3 57 0 71 -20 101 -32 47 -91 78 -227 117
-63 19 -123 41 -133 50 -39 35 -7 83 55 83 41 0 73 -25 83 -65 6 -25 7 -25
115 -25 121 0 119 -2 99 72 -26 94 -110 140 -265 144 -55 2 -109 1 -120 -2z"/>
<path d="M3342 3589 c-23 -12 -58 -40 -77 -62 l-35 -41 0 57 0 57 -115 0 -115
0 0 -320 0 -321 115 3 115 3 3 160 c2 134 5 166 21 199 24 47 66 74 129 82
l47 7 0 98 c0 96 -1 99 -22 99 -13 0 -42 -10 -66 -21z"/>
<path d="M4117 3600 c-124 -32 -197 -119 -182 -218 13 -86 91 -143 245 -178
119 -27 170 -95 107 -139 -51 -35 -129 -4 -145 58 l-8 32 -113 3 -114 3 7 -43
c21 -137 188 -217 394 -188 101 14 175 50 210 103 36 53 39 159 7 204 -28 38
-109 77 -234 113 -57 16 -112 37 -122 46 -40 36 -12 84 50 84 46 0 69 -16 79
-55 l8 -30 112 -3 c123 -3 120 -5 101 63 -29 102 -103 145 -262 151 -56 2
-119 -1 -140 -6z"/>
<path d="M5670 2957 l-105 -52 -3 -47 -3 -46 -55 -4 c-30 -1 -54 0 -54 5 0 13
-44 7 -85 -12 -22 -10 -57 -36 -77 -59 l-37 -41 -3 52 -3 52 -115 0 -115 0 0
-315 0 -315 118 -3 117 -3 0 163 c0 135 3 169 18 198 23 46 73 78 133 86 41 6
49 10 49 28 0 19 4 21 60 18 l60 -4 0 -196 c0 -180 2 -200 20 -230 34 -55 93
-70 263 -64 l67 2 0 74 c0 80 -4 86 -59 86 -14 0 -37 7 -49 16 -21 14 -22 21
-22 165 l0 149 65 0 65 0 0 75 0 75 -65 0 -65 0 0 100 c0 55 -3 100 -7 99 -5
0 -55 -24 -113 -52z m-213 -249 c-2 -18 -4 -6 -4 27 0 33 2 48 4 33 2 -15 2
-42 0 -60z"/>
<path d="M2459 2826 c-134 -36 -210 -131 -225 -284 -17 -172 61 -322 194 -372
100 -38 278 -28 372 20 62 32 110 103 110 165 l0 26 -112 -3 -113 -3 -3 -28
c-4 -35 -41 -59 -91 -61 -71 -1 -116 44 -123 123 l-3 32 228 -1 227 -1 0 54
c0 118 -54 239 -131 292 -74 52 -222 70 -330 41z m169 -136 c18 -11 40 -36 48
-55 27 -65 26 -65 -96 -65 l-110 0 0 28 c0 15 9 42 20 60 33 53 83 65 138 32z"/>
<path d="M4518 2826 c-90 -26 -152 -78 -190 -161 -20 -44 -23 -65 -22 -170 0
-100 4 -128 21 -166 62 -136 192 -198 378 -179 107 11 154 29 206 80 46 44 79
116 64 140 -3 6 -55 10 -116 10 -101 0 -109 -1 -109 -19 0 -11 -10 -32 -23
-46 -18 -22 -32 -27 -69 -27 -29 -1 -57 6 -73 16 -30 20 -55 71 -55 113 l0 28
227 0 228 0 -3 65 c-5 142 -71 255 -174 300 -65 29 -216 37 -290 16z m200
-161 c21 -23 32 -45 32 -65 l0 -30 -111 0 -111 0 7 36 c9 50 25 74 60 90 43
20 85 9 123 -31z"/>
<path d="M3912 2804 c-28 -14 -63 -39 -76 -55 -14 -16 -27 -29 -30 -29 -3 0
-6 18 -6 40 l0 40 -110 0 -110 0 0 -425 0 -425 110 0 110 0 0 156 0 156 42
-37 c117 -100 298 -75 379 53 48 75 62 140 57 256 -5 114 -27 178 -81 235 -44
46 -84 61 -165 61 -53 0 -79 -6 -120 -26z m88 -142 c33 -34 50 -87 50 -160 0
-126 -43 -194 -124 -196 -82 -2 -126 67 -126 198 0 117 47 186 127 186 36 0
50 -6 73 -28z"/>
<path d="M6115 2817 c-96 -32 -146 -77 -165 -148 -31 -115 53 -205 225 -239
71 -14 141 -52 150 -81 10 -31 -19 -67 -62 -75 -57 -11 -96 19 -117 89 -5 15
-19 17 -116 17 l-110 0 0 -25 c0 -62 55 -136 128 -172 54 -27 64 -28 197 -28
120 1 146 4 185 22 88 40 130 102 130 188 0 107 -53 148 -272 210 -106 30
-134 50 -124 89 15 61 127 49 144 -16 l8 -33 113 -3 113 -3 -7 43 c-14 81 -40
114 -120 149 -62 28 -236 37 -300 16z"/>
<path d="M2895 2802 c-2 -2 16 -34 39 -70 24 -37 66 -103 94 -148 l50 -81
-104 -161 c-57 -89 -104 -164 -104 -167 0 -3 48 -4 107 -3 l107 3 57 93 c30
50 58 95 61 98 3 3 30 -38 59 -90 l53 -96 128 0 c70 0 128 2 128 4 0 3 -47 77
-105 166 -58 88 -105 163 -105 166 0 3 43 69 95 145 l95 139 -112 0 -113 0
-43 -76 c-24 -42 -46 -73 -50 -69 -4 3 -25 38 -47 77 l-40 70 -123 1 c-68 1
-125 0 -127 -1z"/>
</g>
</svg>
